<svg id="visual" viewBox="0 0 900 600" width="900" height="600" xmlns="http://www.w3.org/2000/svg" xmlns:xlink="http://www.w3.org/1999/xlink" version="1.1"><rect x="0" y="0" width="900" height="600" fill-opacity="0"></rect><path d="M0 419L10.7 427.8C21.3 436.7 42.7 454.3 64.2 452C85.7 449.7 107.3 427.3 128.8 424.5C150.3 421.7 171.7 438.3 193 447.2C214.3 456 235.7 457 257 456.7C278.3 456.3 299.7 454.7 321.2 450.5C342.7 446.3 364.3 439.7 385.8 440.7C407.3 441.7 428.7 450.3 450 459.8C471.3 469.3 492.7 479.7 514.2 471.8C535.7 464 557.3 438 578.8 424.3C600.3 410.7 621.7 409.3 643 419.7C664.3 430 685.7 452 707 452.7C728.3 453.3 749.7 432.7 771.2 421.7C792.7 410.7 814.3 409.3 835.8 420.5C857.3 431.7 878.7 455.3 889.3 467.2L900 479L900 601L889.3 601C878.7 601 857.3 601 835.8 601C814.3 601 792.7 601 771.2 601C749.7 601 728.3 601 707 601C685.7 601 664.3 601 643 601C621.7 601 600.3 601 578.8 601C557.3 601 535.7 601 514.2 601C492.7 601 471.3 601 450 601C428.7 601 407.3 601 385.8 601C364.3 601 342.7 601 321.2 601C299.7 601 278.3 601 257 601C235.7 601 214.3 601 193 601C171.7 601 150.3 601 128.8 601C107.3 601 85.7 601 64.2 601C42.7 601 21.3 601 10.7 601L0 601Z" fill="#0066FF" stroke-linecap="round" stroke-linejoin="miter"></path></svg>